<svg width="36" height="36" viewBox="0 0 36 36" fill="none" xmlns="http://www.w3.org/2000/svg">
<path fill-rule="evenodd" clip-rule="evenodd" d="M7.49825 5.99785C6.66913 5.99785 5.99699 6.66999 5.99699 7.49911V28.4991C5.99699 29.1432 6.40254 29.6925 6.9722 29.9056L22.9385 13.9393C23.2196 13.6583 23.6008 13.5004 23.9983 13.5004C24.3957 13.5004 24.777 13.6583 25.058 13.9393L29.9995 18.8808V7.49911C29.9995 6.66999 29.3274 5.99785 28.4983 5.99785H7.49825ZM32.997 7.49911C32.997 5.01452 30.9828 3.00037 28.4983 3.00037H7.49825C5.01367 3.00037 2.99951 5.01452 2.99951 7.49911V28.4991C2.99951 30.9837 5.01367 32.9979 7.49825 32.9979H28.4983C30.9828 32.9979 32.997 30.9837 32.997 28.4991V7.49911ZM29.9995 23.1199L23.9983 17.1186L11.1165 30.0004H28.4983C29.3274 30.0004 29.9995 29.3282 29.9995 28.4991V23.1199ZM12.7483 11.9979C12.3333 11.9979 11.997 12.3342 11.997 12.7491C11.997 13.164 12.3333 13.5004 12.7483 13.5004C13.1632 13.5004 13.4995 13.164 13.4995 12.7491C13.4995 12.3342 13.1632 11.9979 12.7483 11.9979ZM8.99951 12.7491C8.99951 10.6787 10.6779 9.00037 12.7483 9.00037C14.8186 9.00037 16.497 10.6787 16.497 12.7491C16.497 14.8195 14.8186 16.4979 12.7483 16.4979C10.6779 16.4979 8.99951 14.8195 8.99951 12.7491Z" fill="white"/>
</svg>
