<svg width="20" height="20" viewBox="0 0 20 20" fill="none" xmlns="http://www.w3.org/2000/svg">
<path fill-rule="evenodd" clip-rule="evenodd" d="M6.6658 0.83313C7.12566 0.83313 7.49844 1.20591 7.49844 1.66576V2.4998H12.4998V1.66576C12.4998 1.20591 12.8726 0.83313 13.3325 0.83313C13.7923 0.83313 14.1651 1.20591 14.1651 1.66576V2.4998H15.8325C17.2128 2.4998 18.3318 3.61877 18.3318 4.9991V16.6658C18.3318 18.0461 17.2128 19.1651 15.8325 19.1651H4.1658C2.78548 19.1651 1.6665 18.0461 1.6665 16.6658V4.9991C1.6665 3.61877 2.78548 2.4998 4.1658 2.4998H5.83317V1.66576C5.83317 1.20591 6.20595 0.83313 6.6658 0.83313ZM5.83317 4.16507H4.1658C3.70518 4.16507 3.33177 4.53847 3.33177 4.9991V7.4998H16.6665V4.9991C16.6665 4.53847 16.2931 4.16507 15.8325 4.16507H14.1651V4.9991C14.1651 5.45895 13.7923 5.83173 13.3325 5.83173C12.8726 5.83173 12.4998 5.45895 12.4998 4.9991V4.16507H7.49844V4.9991C7.49844 5.45895 7.12566 5.83173 6.6658 5.83173C6.20595 5.83173 5.83317 5.45895 5.83317 4.9991V4.16507ZM16.6665 9.16506H3.33177V16.6658C3.33177 17.1264 3.70518 17.4998 4.1658 17.4998H15.8325C16.2931 17.4998 16.6665 17.1264 16.6665 16.6658V9.16506Z" fill="white"/>
</svg>
